<svg xmlns="http://www.w3.org/2000/svg" class="svg-icon" style="width: 1em; height: 1em;vertical-align: middle;fill: currentColor;overflow: hidden;" viewBox="0 0 1024 1024" version="1.1"><path d="M0 0h1024v1024H0z" fill="none"/><path d="M636.00147 425.631753v-6.397648c0-68.116134-55.69717-123.813304-123.813304-123.813304-68.116134 0-123.813304 55.69717-123.813304 123.813304v6.397648c0 46.665197-18.440279 91.448732-51.933848 123.813304-44.030871 42.14921-70.750459 100.104373-70.750459 164.080853 0 129.458287 110.641676 203.219405 246.873943 203.219404s246.873943-73.761117 246.873944-203.219404c0-63.976479-27.095921-121.931643-70.75046-164.080853-34.246233-32.740904-52.686512-77.52444-52.686512-123.813304z" fill="#FCD741"/><path d="M512.564498 935.561926c-72.632121 0-138.490261-20.32194-185.908122-56.826167-51.933848-40.267549-79.782433-97.470048-79.782433-165.209849 0-67.363469 27.095921-130.587284 76.395443-177.628813 29.353914-28.224917 46.288864-68.492466 46.288865-110.265344v-6.397648c0-78.653436 63.976479-142.629915 142.629915-142.629915s142.629915 63.976479 142.629916 142.629915v6.397648c0 42.14921 16.558618 81.287762 47.041528 110.265344 49.299522 47.794193 76.395443 110.641676 76.395443 177.628813 0 67.739802-27.472253 124.565968-79.782433 165.209849-47.417861 36.504226-113.276001 56.826167-185.908122 56.826167z m-0.376332-621.324513c-57.955164 0-104.996692 47.041529-104.996692 104.996692v6.397648c0 51.933848-21.074605 101.986035-57.578832 137.361264-41.772878 40.267549-65.105476 93.706725-65.105476 150.532893 0 127.200294 114.404998 184.402793 228.057332 184.402793s228.057332-57.202499 228.057332-184.402793c0-56.449835-22.956266-109.889011-65.105476-150.532893-37.256891-35.37523-58.331496-85.427416-58.331495-137.361264v-6.397648c0-57.955164-47.041529-104.996692-104.996693-104.996692z" fill="#333333"/><path d="M512.188166 313.86108c-9.408306 0-17.687615-7.150312-18.816611-16.558618-14.676957-123.060639 54.191841-199.07975 57.202499-202.46674 7.150312-7.526645 18.816612-7.902977 26.719588-1.128997 7.526645 7.150312 7.902977 18.816612 1.128997 26.719589-0.752664 0.752664-60.213157 67.363469-47.417861 172.360162 1.128997 10.16097-6.021316 19.569276-16.558618 21.074604h-2.257994z" fill="#333333"/><path d="M611.163543 272.840867c-50.428519 21.827269-85.427416 13.924293-95.964719-10.537302s7.150312-55.69717 57.578831-77.52444 124.565968-1.881661 124.565969-1.881661-36.127894 67.739802-86.180081 89.943403z" fill="#229456"/><path d="M558.477031 295.044469c-9.408306 0-18.440279-1.505329-25.966924-4.515987-12.042631-4.892319-21.074605-13.171628-25.966924-24.461595-10.537302-24.461595-0.376332-62.47115 62.47115-89.943403 52.686512-22.956266 127.576626-3.010658 130.587284-2.257993 2.634326 0.752664 4.892319 2.634326 6.021316 5.268651s1.128997 5.644983-0.376332 8.279309c-1.505329 3.010658-38.385888 70.750459-90.696068 94.083058-20.698273 9.031974-39.514884 13.54796-56.073502 13.54796z m72.255788-111.018008c-18.440279 0-37.633223 2.257993-54.191841 9.408306-40.643881 17.687615-61.718486 43.654539-52.686513 65.105476 3.010658 6.77398 7.902977 11.289967 15.429622 14.300624 16.182286 6.397648 40.267549 3.38699 68.116134-8.655641 34.998897-15.429621 63.223815-55.69717 75.266446-74.890114-12.042631-2.257993-31.235575-5.268651-51.933848-5.268651z" fill="#333333"/></svg>